<?xml version="1.0" encoding="iso-8859-1"?>
<!-- Uploaded to: SVG Repo, www.svgrepo.com, Generator: SVG Repo Mixer Tools -->
<svg version="1.1" id="Layer_1" xmlns="http://www.w3.org/2000/svg" xmlns:xlink="http://www.w3.org/1999/xlink" 
	 viewBox="0 0 489.824 489.824" xml:space="preserve">
<g id="XMLID_1276_">
	<g id="XMLID_1277_">
		<polygon style="fill:#FFFFFF;" points="237.714,201.568 201.719,223.165 172.924,410.335 180.122,431.931 216.117,453.528 
			244.913,453.528 288.105,446.329 309.701,424.732 316.9,410.335 288.105,230.363 259.309,201.568 		"/>
	</g>
	<g id="XMLID_1358_">
		<path style="fill:#706F6F;" d="M180.122,194.369H57.743c0,0-0.136,50.181,107.983,50.392L180.122,194.369z"/>
	</g>
	<g id="XMLID_1373_">
		<path style="fill:#9D9D9C;" d="M302.503,194.369h122.38c0,0,0.136,50.181-107.983,50.392L302.503,194.369z"/>
	</g>
	<g id="XMLID_1333_">
		<path style="fill:#9D9D9C;" d="M309.701,201.568l-14.398-122.38l0,0c0-23.855-26.537-43.193-50.392-43.193
			s-50.391,19.338-50.391,43.193l0,0l-21.597,122.38l-21.597,158.375l7.199,43.193h14.398l35.994-194.369h71.988L316.9,403.136
			l7.199,14.398l14.398-50.392L309.701,201.568z"/>
	</g>
	<g id="XMLID_1314_">
		<path style="fill:#706F6F;" d="M244.913,35.995c-23.855,0-50.392,19.338-50.392,43.193l0,0l-21.597,122.38l-21.597,158.375
			l7.199,43.193h14.398l35.994-194.369l35.994-7.199"/>
	</g>
	<g id="XMLID_1330_">
		
			<rect x="229.644" y="114.309" transform="matrix(0.7071 -0.7071 0.7071 0.7071 -19.8927 211.1336)" style="fill:#F9B233;" width="30.542" height="30.542"/>
	</g>
	<g id="XMLID_464_">
		<path style="fill:#1D1D1B;" d="M331.298,252.261v-15h28.796c32.267-0.109,51.023-21.958,59.509-35.392h-95.504v-15h119.041
			l-4.09,10.273c-0.225,0.564-5.646,13.983-17.927,27.417c-16.495,18.043-37.59,27.622-61.004,27.701h-28.821V252.261z"/>
	</g>
	<g id="XMLID_514_">
		<path style="fill:#1D1D1B;" d="M158.525,252.261H129.73c-23.44-0.079-44.535-9.658-61.03-27.701
			c-12.281-13.434-17.702-26.853-17.927-27.417l-4.09-10.273h119.041v15H70.221c2.435,3.864,5.709,8.42,9.888,12.937
			c13.727,14.835,30.431,22.391,49.647,22.455h28.77v14.999H158.525z"/>
	</g>
	<g id="XMLID_515_">
		<rect x="216.117" y="93.284" style="fill:#FFFFFF;" width="14.398" height="15"/>
	</g>
	<g id="XMLID_516_">
		<rect x="259.31" y="93.284" style="fill:#FFFFFF;" width="14.397" height="15"/>
	</g>
	<g id="XMLID_517_">
		<polygon style="fill:#1D1D1B;" points="244.913,161.782 218.014,134.884 228.618,124.276 244.913,140.569 261.204,124.276 
			271.811,134.884 		"/>
	</g>
	<path style="fill:#1D1D1B;" d="M274.008,456.845c17.087-5.06,32.58-14.608,45.157-28.082c19.42-20.807,29.037-47.902,27.079-76.296
		l-0.023-0.336L302.327,77.463c-4.534-28.374-28.681-48.969-57.415-48.969s-52.882,20.595-57.416,48.969l-43.841,274.336
		l-0.076,0.668c-1.958,28.395,7.66,55.49,27.081,76.297c12.576,13.474,28.069,23.021,45.155,28.081v17.979h-50.091v15h65.091
		v-29.757c4.626,0.633,9.331,0.961,14.097,0.961c4.765,0,9.47-0.329,14.096-0.961v29.757h65.091v-15h-50.091L274.008,456.845
		L274.008,456.845z M158.521,353.827L202.31,79.83c3.364-21.055,21.281-36.336,42.604-36.336c21.321,0,39.238,15.281,42.603,36.336
		l43.787,273.997c1.042,15.952-2.208,31.412-9.307,45.165l-20.747-155.601c-3.75-28.118-27.97-49.322-56.336-49.322
		c-28.367,0-52.587,21.204-56.337,49.322l-20.747,155.601C160.73,385.239,157.48,369.779,158.521,353.827z M244.911,446.027
		c-24.258,0-46.733-9.766-63.286-27.499c-0.375-0.401-0.74-0.808-1.106-1.215l22.925-171.94
		c2.76-20.697,20.587-36.305,41.468-36.305c20.88,0,38.707,15.607,41.467,36.305l22.925,171.94
		c-0.366,0.406-0.731,0.813-1.105,1.214C291.646,436.261,269.171,446.027,244.911,446.027z"/>
	<g id="XMLID_519_">
		<rect x="237.413" style="fill:#1D1D1B;" width="15" height="21.597"/>
	</g>
	<g id="XMLID_520_">
		
			<rect x="266.195" y="4.225" transform="matrix(-0.707 -0.7072 0.7072 -0.707 457.0118 218.1495)" style="fill:#1D1D1B;" width="15" height="20.362"/>
	</g>
	<g id="XMLID_521_">
		
			<rect x="205.936" y="6.895" transform="matrix(-0.7071 -0.7071 0.7071 -0.7071 358.755 177.3921)" style="fill:#1D1D1B;" width="20.361" height="15.001"/>
	</g>
</g>
</svg>